<?xml version="1.0" encoding="UTF-8" standalone="no"?>
<svg
        xmlns:dc="http://purl.org/dc/elements/1.1/"
        xmlns:cc="http://creativecommons.org/ns#"
        xmlns:rdf="http://www.w3.org/1999/02/22-rdf-syntax-ns#"
        xmlns="http://www.w3.org/2000/svg"
        xmlns:sodipodi="http://sodipodi.sourceforge.net/DTD/sodipodi-0.dtd"
        xmlns:inkscape="http://www.inkscape.org/namespaces/inkscape"
        version="1.1"
        id="Capa_1"
        x="0px"
        y="0px"
        viewBox="0 0 512.12 512.12"
        style="enable-background:new 0 0 512.12 512.12;"
        xml:space="preserve"><metadata
   id="metadata995"><rdf:RDF><cc:Work
       rdf:about=""><dc:format>image/svg+xml</dc:format><dc:type
        rdf:resource="http://purl.org/dc/dcmitype/StillImage"/><dc:title/></cc:Work></rdf:RDF></metadata>
    <defs
            id="defs993"/>
    <sodipodi:namedview
            inkscape:document-rotation="0"
            pagecolor="#ffffff"
            bordercolor="#666666"
            borderopacity="1"
            objecttolerance="10"
            gridtolerance="10"
            guidetolerance="10"
            inkscape:pageopacity="0"
            inkscape:pageshadow="2"
            inkscape:window-width="1440"
            inkscape:window-height="837"
            id="namedview991"
            showgrid="false"
            inkscape:zoom="0.89764048"
            inkscape:cx="166.64549"
            inkscape:cy="237.84454"
            inkscape:window-x="0"
            inkscape:window-y="0"
            inkscape:window-maximized="1"
            inkscape:current-layer="layer3"/>


    <g
            id="g960"
            transform="matrix(0.7,0,0,0.7,73.526096,70.083886)">
</g>
    <g
            id="g962"
            transform="matrix(0.7,0,0,0.7,73.526096,70.083886)">
</g>
    <g
            id="g964"
            transform="matrix(0.7,0,0,0.7,73.526096,70.083886)">
</g>
    <g
            id="g966"
            transform="matrix(0.7,0,0,0.7,73.526096,70.083886)">
</g>
    <g
            id="g968"
            transform="matrix(0.7,0,0,0.7,73.526096,70.083886)">
</g>
    <g
            id="g970"
            transform="matrix(0.7,0,0,0.7,73.526096,70.083886)">
</g>
    <g
            id="g972"
            transform="matrix(0.7,0,0,0.7,73.526096,70.083886)">
</g>
    <g
            id="g974"
            transform="matrix(0.7,0,0,0.7,73.526096,70.083886)">
</g>
    <g
            id="g976"
            transform="matrix(0.7,0,0,0.7,73.526096,70.083886)">
</g>
    <g
            id="g978"
            transform="matrix(0.7,0,0,0.7,73.526096,70.083886)">
</g>
    <g
            id="g980"
            transform="matrix(0.7,0,0,0.7,73.526096,70.083886)">
</g>
    <g
            id="g982"
            transform="matrix(0.7,0,0,0.7,73.526096,70.083886)">
</g>
    <g
            id="g984"
            transform="matrix(0.7,0,0,0.7,73.526096,70.083886)">
</g>
    <g
            id="g986"
            transform="matrix(0.7,0,0,0.7,73.526096,70.083886)">
</g>
    <g
            id="g988"
            transform="matrix(0.7,0,0,0.7,73.526096,70.083886)">
</g>
    <g
            inkscape:groupmode="layer"
            id="layer2"
            inkscape:label="squares"
            style="display:inline;opacity:1"><g
     id="g1495"><rect
       y="-3.4422104"
       x="252.72609"
       height="252.72609"
       width="264.99139"
       id="rect1001"
       style="fill:#ffd166;fill-opacity:0.7;stroke-width:1.00259" /><rect
            y="-3.4422104"
            x="-3.0216918e-06"
            height="252.72609"
            width="252.72609"
            id="rect997"
            style="fill:#ef476f;fill-opacity:0.7;stroke-width:0.982433"/><rect
            y="249.28389"
            x="0"
            height="264.98047"
            width="252.71735"
            id="rect1003"
            style="fill:#06d6a0;fill-opacity:0.5;stroke-width:1.02129"/><rect
            y="249.28389"
            x="252.72609"
            height="268.32254"
            width="264.98044"
            id="rect999"
            style="mix-blend-mode:normal;fill:#26547c;fill-opacity:0.5;stroke-width:1.0527"/></g></g>
    <g
            inkscape:groupmode="layer"
            id="layer1"
            inkscape:label="circle"
            style="display:inline;opacity:0.55"><circle
     style="fill:#ffffff;fill-opacity:0.5;stroke-width:1.35247"
     id="path1453"
     cx="256"
     cy="256"
     r="206" /></g>
    <g
            inkscape:groupmode="layer"
            id="layer3"
            inkscape:label="android"
            style="display:inline"><g
     style="fill:#000000"
     id="g952"
     transform="matrix(0.7,0,0,0.7,73.526096,70.083886)">
	<path
            style="fill:#000000"
            d="m 74.727,170.787 c -17.673,0 -32,14.327 -32,32 V 352.12 c 0,17.673 14.327,32 32,32 17.673,0 32,-14.327 32,-32 V 202.787 c 0,-17.673 -14.327,-32 -32,-32 z"
            id="path944"/>
	<path
            style="fill:#000000"
            d="m 437.393,170.787 c -17.673,0 -32,14.327 -32,32 V 352.12 c 0,17.673 14.327,32 32,32 17.673,0 32,-14.327 32,-32 V 202.787 c 0,-17.673 -14.326,-32 -32,-32 z"
            id="path946"/>
	<path
            style="fill:#000000"
            d="M 373.393,170.787 H 138.727 c -5.891,0 -10.667,4.776 -10.667,10.667 V 352.12 c -0.005,25.348 17.831,47.197 42.667,52.267 v 75.733 c 0,17.673 14.327,32 32,32 17.673,0 32,-14.327 32,-32 v -74.667 h 42.667 v 74.667 c 0,17.673 14.327,32 32,32 17.673,0 32,-14.327 32,-32 v -75.733 c 24.836,-5.07 42.672,-26.919 42.667,-52.267 V 181.454 c -10e-4,-5.891 -4.777,-10.667 -10.668,-10.667 z"
            id="path948"/>
	<path
            style="fill:#000000"
            d="m 333.607,44.323 26.005,-25.984 c 4.237,-4.093 4.354,-10.845 0.262,-15.083 -4.093,-4.237 -10.845,-4.354 -15.083,-0.262 -0.089,0.086 -0.176,0.173 -0.262,0.262 L 314.236,33.55 c -37.102,-16.117 -79.229,-16.117 -116.331,0 L 167.612,3.235 c -4.237,-4.093 -10.99,-3.975 -15.083,0.262 -3.992,4.134 -3.992,10.687 0,14.82 l 25.984,26.005 c -31.677,20.96 -50.649,56.481 -50.453,94.464 0,5.891 4.776,10.667 10.667,10.667 h 234.667 c 5.891,0 10.667,-4.776 10.667,-10.667 0.195,-37.982 -18.777,-73.503 -50.454,-94.463 z"
            id="path950"/>
</g>
        <g
                id="g958"
                transform="matrix(0.7,0,0,0.7,73.526096,70.083886)">
	<circle
            style="fill:#fafafa"
            cx="202.72701"
            cy="96.120003"
            r="10.667"
            id="circle954"/>
            <circle
                    style="fill:#fafafa"
                    cx="309.39301"
                    cy="96.120003"
                    r="10.667"
                    id="circle956"/>
</g></g></svg>
