<?xml version="1.0"?>
<svg viewBox="0 0 1024 1024" version="1.1" xmlns="http://www.w3.org/2000/svg">
<g id="layer1" >
<rect x="73.52161" y="238.2532" width="814.54016" height="646.734"  ry="77.0" fill="rgb(230,126,34)" stroke-width="1" stroke="rgb(230,126,34)"/>
<path
	fill="#E67E22" fill-opacity="1.0"
	d="M 147.5216 152.4787 C 106.6525 152.4787 73.5216 185.6096 73.5216 226.4787 L 73.5216 326.9097 C 73.5216 367.7787 106.6525 400.9097 147.5216 400.9097 L 453.6786 400.9097 C 494.5477 400.9097 527.6786 367.7787 527.6786 326.9097 L 527.6786 237.8251 L 437.3006 152.4787 z " />
<path
	fill="#F1C40F" fill-opacity="1.0"
	d="M 883.0015 343.6695 L 398.4001 344.4933 L 363.9304 366.7932 L 335.6672 400.9097 L 318.9335 408.9462 L 174.3066 884.9872 L 216.1631 884.9872 C 227.6984 884.4944 236.4370 884.3302 243.3240 884.3302 C 257.0979 884.3302 263.4653 884.9872 269.9861 884.9872 L 786.8235 884.9872 C 864.8992 884.9872 888.0618 884.9872 913.0326 818.2123 L 978.0015 438.6695 C 978.0015 386.2025 935.4685 343.6695 883.0015 343.6695 z " />
<circle cx="400.0053" cy="430.32263" r="85.341675" fill="#F1C40F" fill-opacity="1.0" />
</g>
</svg>